Manufacturing Consent: Noam Chomsky and the Media (1992)
167 min  -  Documentary | Biography | War   -  6 November 1992 (Australia)
8.1 Your rating:   -/10   Ratings: 8.1/10 from 2,293 users   
Reviews: 24 user | 14 critic
A film about the noted American linguist/political dissident and his warning about corporate media's role in modern propaganda.

Directors: Mark Achbar, Peter Wintonick
Stars: Noam Chomsky, Mark Achbar and Edward S. Herman


General
Complete name                    : D:\Videos\Manufacturing.Consent.Noam.Chomsky.and.the Media.1992.DVDRip.XviD.MP3-NiPiTiX\Manufacturing.Consent.Noam.Chomsky.and.the Media.1992.DVDRip.XviD.MP3-NiPiTiX.avi
Format                           : AVI
Format/Info                      : Audio Video Interleave
File size                        : 1.37 GiB
Duration                         : 2h 40mn
Overall bit rate                 : 1 217 Kbps
Writing application              : VirtualDubMod 1.5.10.2 (build 2540/release)
Writing library                  : VirtualDubMod build 2540/release

Video
ID                               : 0
Format                           : MPEG-4 Visual
Format profile                   : Advanced Simple@L5
Format settings, BVOP            : 3
Format settings, QPel            : No
Format settings, GMC             : No warppoints
Format settings, Matrix          : Default (H.263)
Codec ID                         : XVID
Codec ID/Hint                    : XviD
Duration                         : 2h 40mn
Bit rate                         : 1 079 Kbps
Width                            : 720 pixels
Height                           : 536 pixels
Display aspect ratio             : 4:3
Frame rate                       : 25.000 fps
Color space                      : YUV
Chroma subsampling               : 4:2:0
Bit depth                        : 8 bits
Scan type                        : Interlaced
Scan order                       : Bottom Field First
Compression mode                 : Lossy
Bits/(Pixel*Frame)               : 0.112
Stream size                      : 1.21 GiB (89%)
Writing library                  : XviD 1.2.1 (UTC 2008-12-04)

Audio
ID                               : 1
Format                           : MPEG Audio
Format version                   : Version 1
Format profile                   : Layer 3
Codec ID                         : 55
Codec ID/Hint                    : MP3
Duration                         : 2h 40mn
Bit rate mode                    : Variable
Bit rate                         : 128 Kbps
Channel(s)                       : 2 channels
Sampling rate                    : 48.0 KHz
Compression mode                 : Lossy
Stream size                      : 144 MiB (10%)
Alignment                        : Aligned on interleaves
Interleave, duration             : 24 ms (0.60 video frame)
Interleave, preload duration     : 501 ms
Writing library                  : LAME3.98r
Encoding settings                : -m s -V 4 -q 0 -lowpass 17 --abr 128

English srt subtitles included.